<svg xmlns="http://www.w3.org/2000/svg" viewBox="0 0 800 460" role="img" aria-labelledby="title desc">
  <title id="title">Assessment map</title><desc id="desc">A folded city map with a marked route and a checklist.</desc>
  <rect width="800" height="460" fill="#17150f"/><path d="M70 90 280 45l220 58 230-42v285l-220 48-220-58-220 42Z" fill="#f6eedd" stroke="#c69f57" stroke-width="7"/>
  <path d="M280 45v291m220-233v244m-220-140 220 58" fill="none" stroke="#b45436" stroke-width="6"/>
  <path d="M95 265c90-115 170 55 260-45s165 80 315-70" fill="none" stroke="#17150f" stroke-width="13"/><circle cx="355" cy="220" r="17" fill="#c69f57" stroke="#17150f" stroke-width="6"/>
  <g transform="translate(555 285)"><rect width="165" height="112" fill="#c69f57"/><path d="m20 31 12 12 22-27m-34 56 12 12 22-27" fill="none" stroke="#17150f" stroke-width="7"/><path d="M72 34h72M72 90h72" stroke="#17150f" stroke-width="7"/></g>
</svg>
