<svg xmlns="http://www.w3.org/2000/svg" viewBox="0 0 800 450" role="img" aria-labelledby="title desc">
  <title id="title">One neighbourhood cell</title>
  <desc id="desc">A single cell with its blocks, a gold amenity core and a dashed walking radius.</desc>
  <rect width="800" height="450" fill="#f6eedd"/>
  <rect x="60" y="46" width="680" height="358" fill="#e7d7ad" stroke="#17150f" stroke-width="8"/>
  <g stroke="#f6eedd" stroke-width="18" stroke-linecap="square">
    <path d="M60 160h680M60 292h680M250 46v358M560 46v358"/>
  </g>
  <g fill="#17150f">
    <rect x="94" y="80" width="72" height="62"/><rect x="286" y="80" width="72" height="62"/>
    <rect x="596" y="80" width="76" height="62"/>
    <rect x="94" y="196" width="72" height="60"/><rect x="596" y="196" width="76" height="60"/>
    <rect x="94" y="322" width="76" height="58"/><rect x="286" y="322" width="72" height="58"/>
    <rect x="596" y="322" width="76" height="58"/>
  </g>
  <circle cx="400" cy="226" r="140" fill="none" stroke="#17150f" stroke-width="5" stroke-dasharray="14 18" opacity="0.75"/>
  <rect x="330" y="188" width="140" height="78" fill="#c69f57" stroke="#17150f" stroke-width="7"/>
  <path d="M344 227h44m-22-22v44" stroke="#17150f" stroke-width="8" fill="none"/>
  <path d="M406 211h50M406 245h50" stroke="#17150f" stroke-width="7"/>
  <path d="M740 46v358" stroke="#b45436" stroke-width="20"/>
  <circle cx="400" cy="226" r="13" fill="#17150f" stroke="#f6eedd" stroke-width="4"/>
</svg>
