<svg xmlns="http://www.w3.org/2000/svg" viewBox="0 0 1600 620" role="img" aria-labelledby="title desc">
  <title id="title">The studio pin-up wall</title>
  <desc id="desc">A plan sheet pinned to a dark studio wall with a critic's rust arrow drawn across it, flanked by two more pinned sheets, and a card reading the same route before the week's decision and six weeks after it.</desc>
  <rect width="1600" height="620" fill="#17150f"/>
  <g stroke="#3a3427" stroke-width="2">
    <path d="M0 110h1600M0 250h1600M0 390h1600M0 530h1600M240 0v620M480 0v620M720 0v620M960 0v620M1200 0v620M1440 0v620"/>
  </g>
  <g transform="rotate(-4 300 310)">
    <rect x="150" y="176" width="290" height="268" fill="#241f15" stroke="#4d442f" stroke-width="4"/>
    <g stroke="#4d442f" stroke-width="12"><path d="M150 310h290M295 176v268"/></g>
    <g fill="#e7d7ad">
      <rect x="180" y="204" width="86" height="76"/><rect x="324" y="204" width="86" height="76"/>
      <rect x="180" y="340" width="86" height="76"/><rect x="324" y="340" width="86" height="76"/>
    </g>
    <circle cx="295" cy="192" r="11" fill="#c69f57"/>
  </g>
  <g transform="rotate(-2 1300 310)">
    <rect x="1160" y="176" width="290" height="268" fill="#241f15" stroke="#4d442f" stroke-width="4"/>
    <g stroke="#4d442f" stroke-width="12"><path d="M1160 310h290"/></g>
    <g fill="#c69f57">
      <rect x="1190" y="204" width="110" height="86"/><rect x="1320" y="204" width="100" height="86"/>
    </g>
    <g fill="#e7d7ad">
      <rect x="1190" y="336" width="110" height="86"/><rect x="1320" y="336" width="100" height="86"/>
    </g>
    <circle cx="1305" cy="192" r="11" fill="#c69f57"/>
  </g>
  <g transform="rotate(2 800 310)">
    <rect x="510" y="150" width="400" height="326" fill="#241f15" stroke="#e7d7ad" stroke-width="5"/>
    <g stroke="#4d442f" stroke-width="18" stroke-linecap="square">
      <path d="M510 262h400M510 372h400M680 150v326"/>
    </g>
    <g fill="#e7d7ad">
      <rect x="540" y="176" width="106" height="70"/><rect x="714" y="176" width="164" height="70"/>
      <rect x="540" y="288" width="106" height="66"/><rect x="714" y="288" width="164" height="66"/>
      <rect x="540" y="392" width="106" height="60"/><rect x="714" y="392" width="164" height="60"/>
    </g>
    <path d="M536 440 884 172" fill="none" stroke="#b45436" stroke-width="14"/>
    <path d="m884 172-62 12 24 40Z" fill="#b45436"/>
    <circle cx="710" cy="166" r="12" fill="#c69f57"/>
  </g>
  <g transform="translate(956 186)">
    <rect width="188" height="248" fill="#241f15" stroke="#4d442f" stroke-width="3"/>
    <text x="22" y="42" fill="#e7d7ad" font-family="monospace" font-size="17" letter-spacing="2">PEAK ROUTE</text>
    <text x="22" y="94" fill="#c69f57" font-family="monospace" font-size="28">11.2</text>
    <text x="22" y="124" fill="#e7d7ad" font-family="monospace" font-size="16">BEFORE</text>
    <path d="M22 150h144" stroke="#b45436" stroke-width="7"/>
    <text x="22" y="200" fill="#c69f57" font-family="monospace" font-size="28">10.7</text>
    <text x="22" y="230" fill="#e7d7ad" font-family="monospace" font-size="16">SIX WEEKS ON</text>
  </g>
</svg>
